<svg id="logo" data-name="Layer 1" xmlns="http://www.w3.org/2000/svg" xmlns:xlink="http://www.w3.org/1999/xlink" viewBox="0 0 1000 1000"><defs><style>.cls-1{font-size:206.43px;font-family:NeueHaasDisplay-Mediu, Neue Haas Grotesk Display Pro;}.cls-2{letter-spacing:0em;}.cls-3{fill:url(#linear-gradient);}.cls-4,.cls-5,.cls-6,.cls-7,.cls-8,.cls-9{fill:none;stroke-linecap:round;stroke-linejoin:round;stroke-width:13px;}.cls-4{stroke:url(#linear-gradient-8);}.cls-5{stroke:url(#linear-gradient-9);}.cls-6{stroke:url(#linear-gradient-10);}.cls-7{stroke:url(#linear-gradient-11);}.cls-8{stroke:url(#linear-gradient-12);}.cls-9{stroke:url(#linear-gradient-13);}</style><linearGradient id="linear-gradient" x1="136.59" y1="505.63" x2="870.85" y2="505.63" gradientUnits="userSpaceOnUse"><stop offset="0" stop-color="#4f86e3"/><stop offset="1" stop-color="#898af4"/></linearGradient><linearGradient id="linear-gradient-8" x1="307.38" y1="242.57" x2="692.62" y2="242.57" xlink:href="#linear-gradient"/><linearGradient id="linear-gradient-9" x1="93.73" y1="333.63" x2="478.97" y2="333.63" xlink:href="#linear-gradient"/><linearGradient id="linear-gradient-10" x1="521.03" y1="333.63" x2="906.27" y2="333.63" xlink:href="#linear-gradient"/><linearGradient id="linear-gradient-11" x1="307.38" y1="757.43" x2="692.62" y2="757.43" xlink:href="#linear-gradient"/><linearGradient id="linear-gradient-12" x1="93.73" y1="666.37" x2="478.97" y2="666.37" xlink:href="#linear-gradient"/><linearGradient id="linear-gradient-13" x1="521.03" y1="666.37" x2="906.27" y2="666.37" xlink:href="#linear-gradient"/></defs><title>1</title><text class="cls-1" transform="translate(125.23 561.36)"><tspan class="cls-2">R</tspan><tspan x="133.35" y="0">egulbe</tspan></text><path class="cls-3" d="M136.59,561.36V413.77H204.3q21.25,0,34.37,11.35t13.11,29.72q0,28.29-27.05,35.72v.62q10.53,3.09,15.8,9.8t6.7,19.92q.42,5,.93,11.66c.34,4.48.62,8,.83,10.64s.48,5.23.82,7.84a24.18,24.18,0,0,0,1.45,6.09,5,5,0,0,0,2.37,2.79v1.44H224.94a3.47,3.47,0,0,1-1.44-1.55,11.4,11.4,0,0,1-1-3.2q-.41-2.05-.72-4.23c-.21-1.44-.41-3.3-.62-5.57s-.38-4.27-.52-6-.31-4-.51-6.81-.38-5.06-.52-6.71q-1.86-25.18-28.9-25.18H166.52v59.24Zm29.93-123.44V479h31.79q11.77,0,18.06-5.58t6.3-14.65q0-9.3-6-15.07t-17.54-5.78Z"/><path class="cls-3" d="M317.42,564.46q-25.6,0-40.25-15.79t-14.66-40.36q0-23.73,14.66-39.74t37.57-16q25,0,38.6,17.34T367,516.36H290.17q1.65,12.6,8.46,19.51t18.58,6.91q15.48,0,20.44-13h27.66q-3.09,14.87-15.69,24.77T317.42,564.46Zm-2.27-90.21q-20.44,0-24.57,22.71h47.07q-.61-10.11-6.81-16.41A21.08,21.08,0,0,0,315.15,474.25Z"/><path class="cls-3" d="M426.62,597.49q-21.48,0-34.37-8.67a33.93,33.93,0,0,1-15.18-24.36h27.87q4.13,11.76,21.26,11.76,23.54,0,23.54-22.08V542.58h-.62A35.35,35.35,0,0,1,421.46,555q-18.79,0-32.72-13.83T374.8,504.39q0-23.53,12.8-37.68t33-14.14q19.2,0,29.31,14h.42V455.46h27v97.85q0,20.64-12.59,32.2Q452,597.48,426.62,597.49Zm-.42-65q12.6,0,18.79-8.05t6.19-20.64q0-12.39-6.5-20.54T426,475.07q-10.74,0-17.24,7.85T402.26,504q0,13.42,6.5,21T426.2,532.46Z"/><path class="cls-3" d="M589.49,561.36h-27V549h-.62a39.08,39.08,0,0,1-12.7,11.56q-6.92,3.71-17.65,3.71-17.34,0-27-10.32t-9.7-27.87v-70.6h27.87v65.85q0,19.2,17.54,19.2,9.71,0,15.48-6.6t5.78-17.34V455.46h28.08Z"/><path class="cls-3" d="M608.07,561.36V413.77h28.07V561.36Z"/><path class="cls-3" d="M713.76,564.46q-21.48,0-31.59-16.31h-.41v13.21h-27V413.77h28.07v54.49h.62q10.11-15.67,29.52-15.69,20,0,32.82,15.59t12.8,40.36q0,25.59-12.38,40.77T713.76,564.46Zm-6.2-23.54q10.74,0,16.62-8.46t5.88-23.94q0-15.28-6.09-24.26t-17.44-9q-24.36,0-24.36,33.85,0,14.67,6.81,23.23T707.56,540.92Z"/><path class="cls-3" d="M821.3,564.46q-25.59,0-40.25-15.79t-14.66-40.36q0-23.73,14.66-39.74t37.57-16q25,0,38.6,17.34t13.63,46.45h-76.8q1.66,12.6,8.47,19.51t18.58,6.91q15.48,0,20.43-13h27.66q-3.09,14.87-15.68,24.77T821.3,564.46ZM819,474.25q-20.43,0-24.56,22.71h47.06q-.62-10.11-6.81-16.41A21.08,21.08,0,0,0,819,474.25Z"/><path class="cls-4" d="M313.88,279.35c44.33-44.94,111.25-73.56,186.13-73.56s141.78,28.61,186.11,73.54"/><path class="cls-5" d="M100.23,370.42c44.33-44.94,111.25-73.57,186.13-73.57s141.78,28.62,186.11,73.55"/><path class="cls-6" d="M527.53,370.42c44.33-44.94,111.25-73.57,186.13-73.57s141.78,28.62,186.11,73.55"/><path class="cls-7" d="M313.88,720.65c44.33,44.94,111.25,73.56,186.13,73.56s141.78-28.61,186.11-73.54"/><path class="cls-8" d="M100.23,629.58c44.33,44.94,111.25,73.57,186.13,73.57s141.78-28.62,186.11-73.55"/><path class="cls-9" d="M527.53,629.58c44.33,44.94,111.25,73.57,186.13,73.57s141.78-28.62,186.11-73.55"/></svg>