<svg width="24" height="24" viewBox="0 0 24 24" fill="none" xmlns="http://www.w3.org/2000/svg">
<path d="M12 19.704L20.727 11.212C20.7973 11.1421 20.8808 11.0868 20.9726 11.0494C21.0645 11.0119 21.1628 10.9931 21.262 10.9939C21.3611 10.9947 21.4592 11.0152 21.5503 11.0542C21.6415 11.0931 21.7241 11.1498 21.7933 11.2209C21.8624 11.2919 21.9168 11.376 21.9532 11.4683C21.9897 11.5605 22.0075 11.659 22.0056 11.7582C22.0037 11.8573 21.9822 11.9551 21.9423 12.0459C21.9023 12.1367 21.8448 12.2186 21.773 12.287L12.523 21.287C12.383 21.4232 12.1953 21.4994 12 21.4994C11.8046 21.4994 11.617 21.4232 11.477 21.287L2.22697 12.287C2.15516 12.2186 2.09762 12.1367 2.05769 12.0459C2.01776 11.9551 1.99623 11.8573 1.99434 11.7582C1.99245 11.659 2.01024 11.5605 2.04669 11.4683C2.08314 11.376 2.13751 11.2919 2.20667 11.2209C2.27583 11.1498 2.35839 11.0931 2.44959 11.0542C2.54079 11.0152 2.63881 10.9947 2.73797 10.9939C2.83714 10.9931 2.93548 11.0119 3.02731 11.0494C3.11914 11.0868 3.20264 11.1421 3.27297 11.212L12 19.704Z" fill="black"/>
</svg>
