<svg aria-hidden="true" style="position: absolute; width: 0; height: 0; overflow: hidden;" version="1.1" xmlns="http://www.w3.org/2000/svg" xmlns:xlink="http://www.w3.org/1999/xlink">
<defs>

<symbol id="icon-double-arrow" fill="#4f86e3" viewBox="0 0 32 32">
<path d="M29.71 15.293c0.39 0.39 0.39 1.024 0 1.414l-13 13c-0.39 0.391-1.030 0.391-1.42 0-0.39-0.39-0.39-1.024 0-1.414l12.3-12.293-12.3-12.293c-0.39-0.39-0.39-1.024 0-1.414s1.030-0.391 1.42 0l13 13z"></path>
<path d="M3.71 2.293l13 13c0.39 0.39 0.39 1.024 0 1.414l-13 13c-0.39 0.391-1.030 0.391-1.42 0-0.39-0.39-0.39-1.024 0-1.414l12.3-12.293-12.3-12.293c-0.39-0.39-0.39-1.024 0-1.414s1.030-0.391 1.42 0z"></path>
</symbol>

<symbol id="icon-?" fill="#4f86e3" viewBox="0 0 32 32">
<path d="M14.667 31.453v-4.8c-6.68-0.347-12-5.893-12-12.653 0-6.987 5.68-12.667 12.667-12.667s12.667 5.68 12.667 12.667c0 6.6-4.587 13.24-11.427 16.533l-1.907 0.92zM15.333 4c-5.52 0-10 4.48-10 10s4.48 10 10 10h2v3.067c4.853-3.067 8-8.107 8-13.067 0-5.52-4.48-10-10-10zM14 19.333h2.667v2.667h-2.667v-2.667zM16.667 17.333h-2.667c0-4.333 4-4 4-6.667 0-1.467-1.2-2.667-2.667-2.667s-2.667 1.2-2.667 2.667h-2.667c0-2.947 2.387-5.333 5.333-5.333s5.333 2.387 5.333 5.333c0 3.333-4 3.667-4 6.667z"></path>
</symbol>

<symbol id="icon-file" fill="#4f86e3" viewBox="0 0 32 32">
<path d="M8 16h16v-2.667h-16v2.667zM8 21.333h10.667v-2.667h-10.667v2.667zM5.333 26.667c-0.733 0-1.361-0.261-1.884-0.784s-0.784-1.15-0.783-1.883v-16c0-0.733 0.261-1.361 0.784-1.884s1.15-0.784 1.883-0.783h8l2.667 2.667h10.667c0.733 0 1.361 0.261 1.884 0.784s0.784 1.15 0.783 1.883v13.333c0 0.733-0.261 1.361-0.784 1.884s-1.15 0.784-1.883 0.783h-21.333zM5.333 24h21.333v-13.333h-11.767l-2.667-2.667h-6.9v16z"></path>
</symbol>

<symbol id="icon-location" fill="#4f86e3" viewBox="0 0 32 32">
<path d="M16 2.667c3.183 0 6.235 1.264 8.485 3.515s3.515 5.303 3.515 8.485c0 4.099-2.235 7.453-4.589 9.86-1.177 1.189-2.46 2.267-3.835 3.221l-0.568 0.387-0.267 0.177-0.503 0.32-0.448 0.273-0.555 0.323c-0.377 0.214-0.803 0.327-1.236 0.327s-0.859-0.113-1.236-0.327l-0.555-0.323-0.693-0.427-0.256-0.167-0.547-0.364c-1.483-1.004-2.864-2.149-4.124-3.421-2.355-2.409-4.589-5.761-4.589-9.86 0-3.183 1.264-6.235 3.515-8.485s5.303-3.515 8.485-3.515zM16 5.333c-2.475 0-4.849 0.983-6.6 2.734s-2.734 4.124-2.734 6.6c0 3.096 1.696 5.813 3.828 7.995 0.917 0.928 1.908 1.78 2.963 2.547l0.611 0.435c0.197 0.137 0.387 0.265 0.569 0.384l0.52 0.333 0.457 0.279 0.385 0.225 0.607-0.359 0.489-0.307c0.26-0.165 0.54-0.351 0.836-0.556l0.611-0.435c1.055-0.767 2.046-1.619 2.963-2.547 2.132-2.18 3.828-4.899 3.828-7.995 0-2.475-0.983-4.849-2.734-6.6s-4.124-2.734-6.6-2.734zM16 9.333c1.415 0 2.771 0.562 3.771 1.562s1.562 2.357 1.562 3.771c0 1.415-0.562 2.771-1.562 3.771s-2.357 1.562-3.771 1.562-2.771-0.562-3.771-1.562c-1-1-1.562-2.357-1.562-3.771s0.562-2.771 1.562-3.771 2.357-1.562 3.771-1.562zM16 12c-0.707 0-1.385 0.281-1.886 0.781s-0.781 1.178-0.781 1.886c0 0.707 0.281 1.385 0.781 1.886s1.178 0.781 1.886 0.781c0.707 0 1.385-0.281 1.886-0.781s0.781-1.178 0.781-1.886c0-0.707-0.281-1.386-0.781-1.886s-1.178-0.781-1.886-0.781z"></path>
</symbol>

<symbol id="icon-dot-gradient" fill="#4f86e3" viewBox="0 0 32 32">
<path d="M16 0c-4.243 0-8.313 1.686-11.314 4.686s-4.686 7.070-4.686 11.314c0 4.243 1.686 8.313 4.686 11.314s7.070 4.686 11.314 4.686c8.88 0 16-7.12 16-16 0-4.243-1.686-8.313-4.686-11.314s-7.070-4.686-11.314-4.686z"></path>
</symbol>

<symbol id="icon-arrow" viewBox="0 0 41 32" fill="#4f86e3">
<path stroke-linejoin="round" stroke-linecap="round" stroke-miterlimit="4" stroke-width="3.4286" d="M2.286 16h36.571M38.857 16l-13.714 13.714M38.857 16l-13.714-13.714"></path>
</symbol>

<svg id="logo" data-name="Layer 1" xmlns="http://www.w3.org/2000/svg" xmlns:xlink="http://www.w3.org/1999/xlink" viewBox="0 0 1000 1000"><defs><style>.cls-1{font-size:206.43px;font-family:NeueHaasDisplay-Mediu, Neue Haas Grotesk Display Pro;}.cls-2{letter-spacing:0em;}.cls-3{fill:url(#linear-gradient);}.cls-4,.cls-5,.cls-6,.cls-7,.cls-8,.cls-9{fill:none;stroke-linecap:round;stroke-linejoin:round;stroke-width:13px;}.cls-4{stroke:url(#linear-gradient-8);}.cls-5{stroke:url(#linear-gradient-9);}.cls-6{stroke:url(#linear-gradient-10);}.cls-7{stroke:url(#linear-gradient-11);}.cls-8{stroke:url(#linear-gradient-12);}.cls-9{stroke:url(#linear-gradient-13);}</style><linearGradient id="linear-gradient" x1="136.59" y1="505.63" x2="870.85" y2="505.63" gradientUnits="userSpaceOnUse"><stop offset="0" stop-color="#4f86e3"/><stop offset="1" stop-color="#898af4"/></linearGradient><linearGradient id="linear-gradient-8" x1="307.38" y1="242.57" x2="692.62" y2="242.57" xlink:href="#linear-gradient"/><linearGradient id="linear-gradient-9" x1="93.73" y1="333.63" x2="478.97" y2="333.63" xlink:href="#linear-gradient"/><linearGradient id="linear-gradient-10" x1="521.03" y1="333.63" x2="906.27" y2="333.63" xlink:href="#linear-gradient"/><linearGradient id="linear-gradient-11" x1="307.38" y1="757.43" x2="692.62" y2="757.43" xlink:href="#linear-gradient"/><linearGradient id="linear-gradient-12" x1="93.73" y1="666.37" x2="478.97" y2="666.37" xlink:href="#linear-gradient"/><linearGradient id="linear-gradient-13" x1="521.03" y1="666.37" x2="906.27" y2="666.37" xlink:href="#linear-gradient"/></defs><title>1</title><text class="cls-1" transform="translate(125.23 561.36)"><tspan class="cls-2">R</tspan><tspan x="133.35" y="0">egulbe</tspan></text><path class="cls-3" d="M136.59,561.36V413.77H204.3q21.25,0,34.37,11.35t13.11,29.72q0,28.29-27.05,35.72v.62q10.53,3.09,15.8,9.8t6.7,19.92q.42,5,.93,11.66c.34,4.48.62,8,.83,10.64s.48,5.23.82,7.84a24.18,24.18,0,0,0,1.45,6.09,5,5,0,0,0,2.37,2.79v1.44H224.94a3.47,3.47,0,0,1-1.44-1.55,11.4,11.4,0,0,1-1-3.2q-.41-2.05-.72-4.23c-.21-1.44-.41-3.3-.62-5.57s-.38-4.27-.52-6-.31-4-.51-6.81-.38-5.06-.52-6.71q-1.86-25.18-28.9-25.18H166.52v59.24Zm29.93-123.44V479h31.79q11.77,0,18.06-5.58t6.3-14.65q0-9.3-6-15.07t-17.54-5.78Z"/><path class="cls-3" d="M317.42,564.46q-25.6,0-40.25-15.79t-14.66-40.36q0-23.73,14.66-39.74t37.57-16q25,0,38.6,17.34T367,516.36H290.17q1.65,12.6,8.46,19.51t18.58,6.91q15.48,0,20.44-13h27.66q-3.09,14.87-15.69,24.77T317.42,564.46Zm-2.27-90.21q-20.44,0-24.57,22.71h47.07q-.61-10.11-6.81-16.41A21.08,21.08,0,0,0,315.15,474.25Z"/><path class="cls-3" d="M426.62,597.49q-21.48,0-34.37-8.67a33.93,33.93,0,0,1-15.18-24.36h27.87q4.13,11.76,21.26,11.76,23.54,0,23.54-22.08V542.58h-.62A35.35,35.35,0,0,1,421.46,555q-18.79,0-32.72-13.83T374.8,504.39q0-23.53,12.8-37.68t33-14.14q19.2,0,29.31,14h.42V455.46h27v97.85q0,20.64-12.59,32.2Q452,597.48,426.62,597.49Zm-.42-65q12.6,0,18.79-8.05t6.19-20.64q0-12.39-6.5-20.54T426,475.07q-10.74,0-17.24,7.85T402.26,504q0,13.42,6.5,21T426.2,532.46Z"/><path class="cls-3" d="M589.49,561.36h-27V549h-.62a39.08,39.08,0,0,1-12.7,11.56q-6.92,3.71-17.65,3.71-17.34,0-27-10.32t-9.7-27.87v-70.6h27.87v65.85q0,19.2,17.54,19.2,9.71,0,15.48-6.6t5.78-17.34V455.46h28.08Z"/><path class="cls-3" d="M608.07,561.36V413.77h28.07V561.36Z"/><path class="cls-3" d="M713.76,564.46q-21.48,0-31.59-16.31h-.41v13.21h-27V413.77h28.07v54.49h.62q10.11-15.67,29.52-15.69,20,0,32.82,15.59t12.8,40.36q0,25.59-12.38,40.77T713.76,564.46Zm-6.2-23.54q10.74,0,16.62-8.46t5.88-23.94q0-15.28-6.09-24.26t-17.44-9q-24.36,0-24.36,33.85,0,14.67,6.81,23.23T707.56,540.92Z"/><path class="cls-3" d="M821.3,564.46q-25.59,0-40.25-15.79t-14.66-40.36q0-23.73,14.66-39.74t37.57-16q25,0,38.6,17.34t13.63,46.45h-76.8q1.66,12.6,8.47,19.51t18.58,6.91q15.48,0,20.43-13h27.66q-3.09,14.87-15.68,24.77T821.3,564.46ZM819,474.25q-20.43,0-24.56,22.71h47.06q-.62-10.11-6.81-16.41A21.08,21.08,0,0,0,819,474.25Z"/><path class="cls-4" d="M313.88,279.35c44.33-44.94,111.25-73.56,186.13-73.56s141.78,28.61,186.11,73.54"/><path class="cls-5" d="M100.23,370.42c44.33-44.94,111.25-73.57,186.13-73.57s141.78,28.62,186.11,73.55"/><path class="cls-6" d="M527.53,370.42c44.33-44.94,111.25-73.57,186.13-73.57s141.78,28.62,186.11,73.55"/><path class="cls-7" d="M313.88,720.65c44.33,44.94,111.25,73.56,186.13,73.56s141.78-28.61,186.11-73.54"/><path class="cls-8" d="M100.23,629.58c44.33,44.94,111.25,73.57,186.13,73.57s141.78-28.62,186.11-73.55"/><path class="cls-9" d="M527.53,629.58c44.33,44.94,111.25,73.57,186.13,73.57s141.78-28.62,186.11-73.55"/></svg>


<symbol id="db" viewBox="0 0 32 32">
<path d="M16 28c-3.356 0-6.195-0.517-8.517-1.551s-3.484-2.295-3.483-3.783v-13.333c0-1.467 1.172-2.722 3.517-3.767s5.172-1.567 8.483-1.567c3.311 0 6.139 0.522 8.484 1.567s3.517 2.3 3.516 3.767v13.333c0 1.489-1.161 2.75-3.484 3.784s-5.161 1.55-8.516 1.549zM16 12.033c1.978 0 3.967-0.284 5.967-0.851s3.122-1.172 3.367-1.816c-0.244-0.644-1.361-1.256-3.351-1.833s-3.984-0.867-5.983-0.867c-2.022 0-4.006 0.284-5.951 0.851s-3.072 1.183-3.383 1.848c0.311 0.667 1.439 1.278 3.384 1.833s3.928 0.834 5.949 0.835zM16 18.667c0.933 0 1.833-0.044 2.7-0.133s1.695-0.217 2.484-0.384c0.788-0.166 1.533-0.372 2.233-0.616s1.339-0.522 1.916-0.833v-4c-0.578 0.311-1.217 0.589-1.917 0.833s-1.445 0.45-2.233 0.617c-0.788 0.166-1.616 0.294-2.483 0.383s-1.767 0.133-2.7 0.133c-0.933 0-1.844-0.044-2.733-0.133s-1.728-0.217-2.517-0.384c-0.788-0.166-1.527-0.372-2.216-0.616s-1.311-0.522-1.867-0.833v4c0.556 0.311 1.178 0.589 1.867 0.833s1.428 0.45 2.217 0.617c0.788 0.166 1.627 0.294 2.516 0.383s1.8 0.133 2.733 0.133zM16 25.333c1.022 0 2.061-0.078 3.116-0.233s2.028-0.361 2.917-0.617c0.889-0.255 1.633-0.544 2.233-0.867s0.956-0.65 1.067-0.983v-3.267c-0.578 0.311-1.217 0.589-1.917 0.833s-1.445 0.45-2.233 0.617c-0.788 0.166-1.616 0.294-2.483 0.383s-1.767 0.133-2.7 0.133c-0.933 0-1.844-0.044-2.733-0.133s-1.728-0.217-2.517-0.384c-0.788-0.166-1.527-0.372-2.216-0.616s-1.311-0.522-1.867-0.833v3.3c0.111 0.333 0.461 0.656 1.051 0.967s1.328 0.595 2.216 0.851c0.889 0.255 1.867 0.46 2.933 0.616s2.111 0.233 3.133 0.233z"></path>
</symbol>

<symbol id="icon-arr-down" viewBox="0 0 32 32">
<path d="M16 26.272l11.636-11.323c0.094-0.093 0.205-0.167 0.327-0.217s0.254-0.075 0.386-0.074c0.132 0.001 0.263 0.028 0.384 0.080s0.232 0.127 0.324 0.222c0.092 0.095 0.165 0.207 0.213 0.33s0.072 0.254 0.070 0.387c-0.003 0.132-0.031 0.263-0.084 0.384s-0.13 0.23-0.226 0.321l-12.333 12c-0.187 0.182-0.437 0.283-0.697 0.283s-0.511-0.102-0.697-0.283l-12.333-12c-0.096-0.091-0.172-0.2-0.226-0.321s-0.082-0.251-0.084-0.384c-0.003-0.132 0.021-0.264 0.070-0.387s0.121-0.235 0.213-0.33c0.092-0.095 0.202-0.17 0.324-0.222s0.252-0.079 0.385-0.080 0.263 0.024 0.386 0.074c0.122 0.050 0.234 0.124 0.328 0.217l11.636 11.323z"></path>
</symbol>

<symbol id="icon-fb" viewBox="0 0 32 32">
<path fill="#fff" style="fill: var(--color1, #fff)" d="M32 16c0-8.838-7.163-16-16-16s-16 7.162-16 16c0 7.987 5.85 14.606 13.5 15.806v-11.181h-4.063v-4.625h4.063v-3.525c0-4.009 2.387-6.225 6.044-6.225 1.75 0 3.581 0.313 3.581 0.313v3.937h-2.019c-1.987 0-2.606 1.234-2.606 2.5v3h4.438l-0.709 4.625h-3.728v11.181c7.65-1.2 13.5-7.819 13.5-15.806z"></path>
</symbol>


<symbol id="letter" viewBox="0 0 26 32">
<path d="M17.6 3.2h-14.4v25.6h19.2v-20.8h-4.8v-4.8zM3.2 0h16l6.4 6.4v22.4c0 0.849-0.337 1.663-0.937 2.263s-1.414 0.937-2.263 0.937h-19.2c-0.849 0-1.663-0.337-2.263-0.937s-0.937-1.414-0.937-2.263v-25.6c0-0.849 0.337-1.663 0.937-2.263s1.414-0.937 2.263-0.937zM6.4 14.4h12.8v3.2h-12.8v-3.2zM6.4 20.8h12.8v3.2h-12.8v-3.2z"></path>
</symbol>


<symbol id="loop" fill="#4f86e3" viewBox="0 0 32 32">
<path d="M31.547 29.331l-5.791-5.744c2.248-2.803 3.337-6.361 3.042-9.941s-1.95-6.913-4.626-9.311c-2.676-2.398-6.169-3.679-9.76-3.581s-7.009 1.569-9.55 4.11c-2.541 2.541-4.011 5.958-4.11 9.55s1.183 7.084 3.581 9.76 5.73 4.331 9.311 4.626c3.581 0.295 7.138-0.794 9.941-3.042l5.744 5.744c0.145 0.146 0.318 0.262 0.508 0.342s0.394 0.12 0.6 0.12c0.206 0 0.41-0.041 0.6-0.12s0.363-0.195 0.508-0.342c0.281-0.291 0.439-0.68 0.439-1.085s-0.157-0.794-0.439-1.085zM14.829 25.756c-2.161 0-4.274-0.641-6.071-1.841s-3.197-2.907-4.024-4.904c-0.827-1.997-1.043-4.194-0.622-6.313s1.462-4.067 2.99-5.595 3.475-2.569 5.595-2.99c2.12-0.422 4.317-0.205 6.313 0.622s3.703 2.228 4.904 4.024c1.201 1.797 1.842 3.91 1.842 6.071 0 2.898-1.151 5.677-3.2 7.726s-4.828 3.2-7.726 3.2z"></path>
</symbol>


<symbol id="map" viewBox="0 0 53 32">
<path fill="#000" style="fill: var(--color2, #000)" d="M0 0h53.228v32h-53.228z"></path>
<path fill="#f9f9f9" style="fill: var(--color3, #f9f9f9)" opacity="0.7" d="M0 0h53.228v32h-53.228z"></path>
</symbol>


<symbol id="linkedin" viewbox="0 0 32 32" fill="currentColor">
<path d="M16 0.64c-8.483 0-15.36 6.877-15.36 15.36s6.877 15.36 15.36 15.36c8.483 0 15.36-6.877 15.36-15.36s-6.877-15.36-15.36-15.36zM12.24 22.367h-3.11v-10.010h3.11v10.010zM10.666 11.128c-0.982 0-1.618-0.696-1.618-1.557 0-0.878 0.654-1.554 1.658-1.554s1.618 0.675 1.637 1.554c0 0.861-0.634 1.557-1.677 1.557zM23.6 22.367h-3.11v-5.547c0-1.291-0.451-2.168-1.576-2.168-0.859 0-1.37 0.594-1.595 1.165-0.083 0.203-0.104 0.491-0.104 0.778v5.771h-3.112v-6.816c0-1.25-0.040-2.294-0.082-3.194h2.702l0.142 1.39h0.062c0.41-0.653 1.413-1.616 3.091-1.616 2.046 0 3.581 1.371 3.581 4.318v5.918z"></path>
</symbol>


<symbol id="close" viewBox="0 0 32 32">
<path d="M23.733 10.304l-1.504-1.504-5.963 5.963-5.963-5.963-1.504 1.504 5.963 5.963-5.963 5.963 1.504 1.504 5.963-5.963 5.963 5.963 1.504-1.504-5.963-5.963 5.963-5.963z"></path>
</symbol>
</defs>
</svg>