<svg aria-hidden="true" style="position: absolute; width: 0; height: 0; overflow: hidden;" version="1.1" xmlns="http://www.w3.org/2000/svg" xmlns:xlink="http://www.w3.org/1999/xlink">
<defs>
<symbol id="icon-arrow" viewBox="0 0 41 32">
<path fill="none" stroke="#fff" style="stroke: var(--color1, #fff)" stroke-linejoin="round" stroke-linecap="round" stroke-miterlimit="4" stroke-width="3.4286" d="M2.286 16h36.571M38.857 16l-13.714 13.714M38.857 16l-13.714-13.714"></path>
</symbol>


<symbol id="db" viewBox="0 0 32 32">
<path d="M16 28c-3.356 0-6.195-0.517-8.517-1.551s-3.484-2.295-3.483-3.783v-13.333c0-1.467 1.172-2.722 3.517-3.767s5.172-1.567 8.483-1.567c3.311 0 6.139 0.522 8.484 1.567s3.517 2.3 3.516 3.767v13.333c0 1.489-1.161 2.75-3.484 3.784s-5.161 1.55-8.516 1.549zM16 12.033c1.978 0 3.967-0.284 5.967-0.851s3.122-1.172 3.367-1.816c-0.244-0.644-1.361-1.256-3.351-1.833s-3.984-0.867-5.983-0.867c-2.022 0-4.006 0.284-5.951 0.851s-3.072 1.183-3.383 1.848c0.311 0.667 1.439 1.278 3.384 1.833s3.928 0.834 5.949 0.835zM16 18.667c0.933 0 1.833-0.044 2.7-0.133s1.695-0.217 2.484-0.384c0.788-0.166 1.533-0.372 2.233-0.616s1.339-0.522 1.916-0.833v-4c-0.578 0.311-1.217 0.589-1.917 0.833s-1.445 0.45-2.233 0.617c-0.788 0.166-1.616 0.294-2.483 0.383s-1.767 0.133-2.7 0.133c-0.933 0-1.844-0.044-2.733-0.133s-1.728-0.217-2.517-0.384c-0.788-0.166-1.527-0.372-2.216-0.616s-1.311-0.522-1.867-0.833v4c0.556 0.311 1.178 0.589 1.867 0.833s1.428 0.45 2.217 0.617c0.788 0.166 1.627 0.294 2.516 0.383s1.8 0.133 2.733 0.133zM16 25.333c1.022 0 2.061-0.078 3.116-0.233s2.028-0.361 2.917-0.617c0.889-0.255 1.633-0.544 2.233-0.867s0.956-0.65 1.067-0.983v-3.267c-0.578 0.311-1.217 0.589-1.917 0.833s-1.445 0.45-2.233 0.617c-0.788 0.166-1.616 0.294-2.483 0.383s-1.767 0.133-2.7 0.133c-0.933 0-1.844-0.044-2.733-0.133s-1.728-0.217-2.517-0.384c-0.788-0.166-1.527-0.372-2.216-0.616s-1.311-0.522-1.867-0.833v3.3c0.111 0.333 0.461 0.656 1.051 0.967s1.328 0.595 2.216 0.851c0.889 0.255 1.867 0.46 2.933 0.616s2.111 0.233 3.133 0.233z"></path>
</symbol>


<symbol id="fb" viewBox="0 0 32 32">
<path fill="#fff" style="fill: var(--color1, #fff)" d="M32 16c0-8.837-7.163-16-16-16s-16 7.163-16 16c0 7.988 5.85 14.606 13.5 15.806v-11.181h-4.062v-4.625h4.062v-3.525c0-4.009 2.387-6.225 6.044-6.225 1.75 0 3.581 0.313 3.581 0.313v3.938h-2.019c-1.988 0-2.607 1.234-2.607 2.5v3h4.438l-0.709 4.625h-3.729v11.181c7.652-1.2 13.5-7.819 13.5-15.806z"></path>
</symbol>


<symbol id="letter" viewBox="0 0 26 32">
<path d="M17.6 3.2h-14.4v25.6h19.2v-20.8h-4.8v-4.8zM3.2 0h16l6.4 6.4v22.4c0 0.849-0.337 1.663-0.937 2.263s-1.414 0.937-2.263 0.937h-19.2c-0.849 0-1.663-0.337-2.263-0.937s-0.937-1.414-0.937-2.263v-25.6c0-0.849 0.337-1.663 0.937-2.263s1.414-0.937 2.263-0.937zM6.4 14.4h12.8v3.2h-12.8v-3.2zM6.4 20.8h12.8v3.2h-12.8v-3.2z"></path>
</symbol>


<symbol id="loop" viewBox="0 0 32 32">
<path d="M31.547 29.331l-5.791-5.744c2.248-2.803 3.337-6.361 3.042-9.941s-1.95-6.913-4.626-9.311c-2.676-2.398-6.169-3.679-9.76-3.581s-7.009 1.569-9.55 4.11c-2.541 2.541-4.011 5.958-4.11 9.55s1.183 7.084 3.581 9.76 5.73 4.331 9.311 4.626c3.581 0.295 7.138-0.794 9.941-3.042l5.744 5.744c0.145 0.146 0.318 0.262 0.508 0.342s0.394 0.12 0.6 0.12c0.206 0 0.41-0.041 0.6-0.12s0.363-0.195 0.508-0.342c0.281-0.291 0.439-0.68 0.439-1.085s-0.157-0.794-0.439-1.085zM14.829 25.756c-2.161 0-4.274-0.641-6.071-1.841s-3.197-2.907-4.024-4.904c-0.827-1.997-1.043-4.194-0.622-6.313s1.462-4.067 2.99-5.595 3.475-2.569 5.595-2.99c2.12-0.422 4.317-0.205 6.313 0.622s3.703 2.228 4.904 4.024c1.201 1.797 1.842 3.91 1.842 6.071 0 2.898-1.151 5.677-3.2 7.726s-4.828 3.2-7.726 3.2z"></path>
</symbol>


<symbol id="map" viewBox="0 0 53 32">
<path fill="#000" style="fill: var(--color2, #000)" d="M0 0h53.228v32h-53.228z"></path>
<path fill="#f9f9f9" style="fill: var(--color3, #f9f9f9)" opacity="0.7" d="M0 0h53.228v32h-53.228z"></path>
</symbol>


<symbol id="linkedin" viewBox="0 0 32 32">
<path fill="#fff" style="fill: var(--color1, #fff)" d="M16 0.64c-8.483 0-15.36 6.877-15.36 15.36s6.877 15.36 15.36 15.36c8.483 0 15.36-6.877 15.36-15.36s-6.877-15.36-15.36-15.36zM12.24 22.367h-3.11v-10.010h3.11v10.010zM10.666 11.128c-0.982 0-1.618-0.696-1.618-1.557 0-0.878 0.654-1.554 1.658-1.554s1.618 0.675 1.637 1.554c0 0.861-0.634 1.557-1.677 1.557zM23.6 22.367h-3.11v-5.547c0-1.291-0.451-2.168-1.576-2.168-0.859 0-1.37 0.594-1.595 1.165-0.083 0.203-0.104 0.491-0.104 0.778v5.771h-3.112v-6.816c0-1.25-0.040-2.294-0.082-3.194h2.702l0.142 1.39h0.062c0.41-0.653 1.413-1.616 3.091-1.616 2.046 0 3.581 1.371 3.581 4.318v5.918z"></path>
</symbol>


<symbol id="close" viewBox="0 0 32 32">
<path d="M23.733 10.304l-1.504-1.504-5.963 5.963-5.963-5.963-1.504 1.504 5.963 5.963-5.963 5.963 1.504 1.504 5.963-5.963 5.963 5.963 1.504-1.504-5.963-5.963 5.963-5.963z"></path>
</symbol>
</defs>
</svg>