<svg width="100" height="78" viewBox="0 0 100 78" fill="none" xmlns="http://www.w3.org/2000/svg">
<path d="M5.58374 47.0899V28.9727H13.8594C15.5909 28.9727 16.9911 29.4371 18.0602 30.3659C19.1292 31.2947 19.6633 32.5108 19.6625 34.0141C19.6625 36.3293 18.5605 37.7909 16.3564 38.3989V38.475C17.2144 38.7279 17.8581 39.1289 18.2875 39.678C18.7169 40.2271 18.9899 41.0422 19.1064 42.1233C19.1406 42.5324 19.1785 43.0095 19.2201 43.5546C19.2616 44.1045 19.2959 44.5366 19.3215 44.8607C19.3472 45.1847 19.3802 45.5027 19.4217 45.823C19.4483 46.0789 19.5079 46.3302 19.599 46.5706C19.6489 46.7174 19.7524 46.8398 19.8886 46.9131V47.0899H16.3821C16.3051 47.0464 16.2436 46.9799 16.2061 46.8996C16.1463 46.7754 16.1051 46.6431 16.0839 46.5068C16.0504 46.339 16.0211 46.1659 15.9959 45.9875C15.9702 45.8108 15.9457 45.5824 15.9201 45.3038C15.8944 45.0251 15.8736 44.7796 15.8565 44.5673C15.8394 44.3549 15.8186 44.0763 15.7942 43.7313C15.7697 43.3864 15.7477 43.1102 15.7306 42.9076C15.5791 40.847 14.4017 39.8167 12.1984 39.8167H9.24185V47.0886L5.58374 47.0899ZM9.24185 31.9372V36.9799H13.1273C14.0863 36.9799 14.8221 36.7516 15.3346 36.2949C15.8471 35.8383 16.1038 35.2388 16.1046 34.4966C16.1046 33.7355 15.8602 33.1189 15.3713 32.6467C14.8824 32.1745 14.1678 31.938 13.2275 31.9372H9.24185Z" fill="white"/>
<path d="M27.6846 47.4707C25.5987 47.4707 23.9589 46.8246 22.7652 45.5325C21.5715 44.2403 20.9742 42.5888 20.9734 40.5781C20.9734 38.6362 21.5706 37.0101 22.7652 35.6999C23.9597 34.3897 25.4903 33.735 27.3571 33.7358C29.3941 33.7358 30.9667 34.4454 32.0748 35.8644C33.183 37.2834 33.7395 39.1841 33.7444 41.5663H24.3541C24.4885 42.5974 24.8332 43.3957 25.3881 43.9612C25.9429 44.5267 26.6999 44.8094 27.6589 44.8094C28.9203 44.8094 29.753 44.2775 30.1572 43.2137H33.5378C33.2861 44.4305 32.6468 45.4441 31.6202 46.2543C30.5935 47.0644 29.2816 47.4699 27.6846 47.4707ZM27.4072 36.3971C25.7417 36.3971 24.7407 37.3264 24.4042 39.1849H30.1572C30.1075 38.3575 29.83 37.686 29.3248 37.1705C29.0756 36.9156 28.7766 36.7153 28.4466 36.5823C28.1165 36.4492 27.7626 36.3861 27.4072 36.3971Z" fill="white"/>
<path d="M41.0318 51.5253C39.2816 51.5253 37.8813 51.1705 36.831 50.461C36.323 50.129 35.8936 49.6893 35.573 49.1726C35.2525 48.656 35.0486 48.0751 34.9757 47.4707H38.382C38.7185 48.4331 39.5847 48.9143 40.9805 48.9143C42.8985 48.9143 43.8576 48.0109 43.8576 46.2039V44.7849H43.7818C43.3662 45.275 42.8472 45.666 42.2625 45.9297C41.6778 46.1934 41.0419 46.3231 40.4011 46.3095C38.8701 46.3095 37.5371 45.7436 36.402 44.6118C35.267 43.48 34.6991 41.9751 34.6982 40.0969C34.6982 38.1713 35.2197 36.6296 36.2627 35.4716C37.3057 34.3136 38.6501 33.735 40.296 33.7358C41.8605 33.7358 43.0546 34.3087 43.8784 35.4544H43.9297V34.0906H47.2297V46.102C47.2297 47.7911 46.7168 49.1087 45.6909 50.0547C44.6528 51.0343 43.0998 51.5245 41.0318 51.5253ZM40.9805 43.5463C42.0071 43.5463 42.7727 43.2169 43.277 42.5581C43.7814 41.8994 44.0336 41.0548 44.0336 40.0245C44.0336 39.0106 43.7688 38.1701 43.2391 37.5031C42.7095 36.8362 41.9485 36.5011 40.956 36.4978C40.0809 36.4978 39.3785 36.819 38.8489 37.4614C38.3193 38.1038 38.0545 38.9664 38.0545 40.0491C38.0545 41.1473 38.3193 42.0066 38.8489 42.6269C39.3785 43.2472 40.0891 43.5525 40.9805 43.5426V43.5463Z" fill="white"/>
<path d="M60.9377 47.0904H57.6377V45.5732H57.5619C57.1557 46.1559 56.6255 46.6407 56.0097 46.9922C55.4459 47.2958 54.7268 47.4476 53.8525 47.4476C52.4396 47.4476 51.3396 47.0254 50.5525 46.1808C49.7654 45.3363 49.3702 44.1959 49.3669 42.7597V34.0933H52.7733V42.1766C52.7733 43.7479 53.4879 44.5335 54.9171 44.5335C55.7082 44.5335 56.3389 44.2634 56.8091 43.7233C57.2792 43.1832 57.5147 42.4737 57.5155 41.5948V34.0908H60.9475L60.9377 47.0904Z" fill="white"/>
<path d="M63.2085 47.0899V28.9727H66.6393V47.0899H63.2085Z" fill="white"/>
<path d="M76.1262 47.4704C74.3759 47.4704 73.0889 46.803 72.2651 45.4683H72.215V47.0899H68.915V28.9727H72.3458V35.6615H72.4216C73.2454 34.3791 74.448 33.7371 76.0296 33.7355C77.6592 33.7355 78.9963 34.3734 80.0409 35.6492C81.0855 36.925 81.607 38.5765 81.6054 40.6036C81.6054 42.6977 81.101 44.366 80.0923 45.6082C79.0835 46.8505 77.7615 47.4712 76.1262 47.4704ZM75.3684 44.5808C76.2435 44.5808 76.9206 44.2346 77.3997 43.5423C77.8788 42.85 78.1184 41.8704 78.1184 40.6036C78.1184 39.3531 77.8703 38.3604 77.374 37.6256C76.8778 36.8907 76.1673 36.5224 75.2425 36.5208C73.2576 36.5208 72.2651 37.9058 72.2651 40.676C72.2651 41.8765 72.5426 42.827 73.0975 43.5276C73.6524 44.2281 74.4093 44.5791 75.3684 44.5808Z" fill="white"/>
<path d="M89.2698 47.4707C87.1847 47.4707 85.5449 46.8246 84.3504 45.5325C83.1558 44.2403 82.5586 42.5888 82.5586 40.5781C82.5586 38.6362 83.1558 37.0101 84.3504 35.6999C85.5449 34.3897 87.0755 33.735 88.9423 33.7358C90.9793 33.7358 92.5519 34.4454 93.66 35.8644C94.7682 37.2834 95.3235 39.1841 95.3259 41.5663H85.9393C86.0745 42.5974 86.4196 43.3957 86.9745 43.9612C87.5294 44.5267 88.2863 44.8094 89.2454 44.8094C90.5067 44.8094 91.339 44.2775 91.7424 43.2137H95.123C94.8713 44.4305 94.2324 45.4441 93.2066 46.2543C92.1807 47.0644 90.8685 47.4699 89.2698 47.4707ZM88.9887 36.3971C87.324 36.3971 86.3234 37.3264 85.9869 39.1849H91.7387C91.6882 38.3575 91.4107 37.686 90.9064 37.1705C90.6572 36.9156 90.3582 36.7153 90.0281 36.5823C89.6981 36.4492 89.3442 36.3861 88.9887 36.3971Z" fill="white"/>
<path d="M27.252 12.4726C32.6701 6.95608 40.8492 3.44287 50.0012 3.44287C59.1532 3.44287 67.3298 6.95485 72.748 12.4702" stroke="white" stroke-width="1.43" stroke-linecap="round" stroke-linejoin="round"/>
<path d="M1.1394 23.6516C6.55752 18.135 14.7366 14.6206 23.8886 14.6206C33.0406 14.6206 41.2173 18.1338 46.6354 23.6491" stroke="white" stroke-width="1.43" stroke-linecap="round" stroke-linejoin="round"/>
<path d="M53.3647 23.6516C58.7829 18.135 66.962 14.6206 76.114 14.6206C85.266 14.6206 93.4426 18.1338 98.8607 23.6491" stroke="white" stroke-width="1.43" stroke-linecap="round" stroke-linejoin="round"/>
<path d="M27.252 66.6436C32.6701 72.1601 40.8492 75.6733 50.0012 75.6733C59.1532 75.6733 67.3298 72.1613 72.748 66.646" stroke="white" stroke-width="1.43" stroke-linecap="round" stroke-linejoin="round"/>
<path d="M1.1394 55.4644C6.55752 60.9809 14.7366 64.4953 23.8886 64.4953C33.0406 64.4953 41.2173 60.9821 46.6354 55.4668" stroke="white" stroke-width="1.43" stroke-linecap="round" stroke-linejoin="round"/>
<path d="M53.3647 55.4644C58.7829 60.9809 66.962 64.4953 76.114 64.4953C85.266 64.4953 93.4426 60.9821 98.8607 55.4668" stroke="white" stroke-width="1.43" stroke-linecap="round" stroke-linejoin="round"/>
</svg>
